<?xml version="1.0" encoding="UTF-8"?>
<svg id="a" width="16px" height="16px" version="1.1" viewBox="0 0 16 16" xmlns="http://www.w3.org/2000/svg"><rect width="16" height="16" rx="3" fill="#2563eb" stroke-width="1.0000"/><g transform="translate(.004619 .52536)" fill="#fff"><path d="m3.2409 9.3556q-0.387 0-0.729-0.144-0.342-0.153-0.603-0.405-0.252-0.261-0.396-0.603t-0.144-0.729 0.144-0.729 0.396-0.594q0.261-0.261 0.603-0.405 0.342-0.153 0.729-0.153t0.729 0.153q0.342 0.144 0.594 0.405 0.261 0.252 0.405 0.594 0.153 0.342 0.153 0.729t-0.153 0.729q-0.144 0.342-0.405 0.603-0.252 0.252-0.594 0.405-0.342 0.144-0.729 0.144z"/><path d="m7.9909 9.3556q-0.387 0-0.729-0.144-0.342-0.153-0.603-0.405-0.252-0.261-0.396-0.603t-0.144-0.729 0.144-0.729 0.396-0.594q0.261-0.261 0.603-0.405 0.342-0.153 0.729-0.153t0.729 0.153q0.342 0.144 0.594 0.405 0.261 0.252 0.405 0.594 0.153 0.342 0.153 0.729t-0.153 0.729q-0.144 0.342-0.405 0.603-0.252 0.252-0.594 0.405-0.342 0.144-0.729 0.144z"/><path d="m12.741 9.3556q-0.387 0-0.729-0.144-0.342-0.153-0.603-0.405-0.252-0.261-0.396-0.603t-0.144-0.729 0.144-0.729 0.396-0.594q0.261-0.261 0.603-0.405 0.342-0.153 0.729-0.153t0.729 0.153q0.342 0.144 0.594 0.405 0.261 0.252 0.405 0.594 0.153 0.342 0.153 0.729t-0.153 0.729q-0.144 0.342-0.405 0.603-0.252 0.252-0.594 0.405-0.342 0.144-0.729 0.144z"/></g></svg>
